<mxfile host="app.diagrams.net" agent="Mozilla/5.0 (X11; Linux x86_64) AppleWebKit/537.36 (KHTML, like Gecko) QtWebEngine/6.8.1 Chrome/122.0.6261.171 Safari/537.36" version="26.1.0">
  <diagram name="Page-1" id="LZ5sX_UQB9Ga61Ny_m43">
    <mxGraphModel dx="1429" dy="850" grid="1" gridSize="10" guides="1" tooltips="1" connect="1" arrows="1" fold="1" page="1" pageScale="1" pageWidth="4681" pageHeight="3300" math="0" shadow="0">
      <root>
        <mxCell id="0" />
        <mxCell id="1" parent="0" />
        <mxCell id="EedAa5cOmFAYyV0mvgN3-1" value="General Archive of Simancas" style="swimlane;fontStyle=0;childLayout=stackLayout;horizontal=1;startSize=26;strokeColor=#C6D9F1;strokeWidth=3;fillColor=none;horizontalStack=0;resizeParent=1;resizeParentMax=0;resizeLast=0;collapsible=1;marginBottom=0;whiteSpace=wrap;html=1;" parent="1" vertex="1">
          <mxGeometry x="667.5" y="396" width="220" height="104" as="geometry" />
        </mxCell>
        <mxCell id="EedAa5cOmFAYyV0mvgN3-2" value="Corporate Body" style="text;strokeColor=#C6D9F1;strokeWidth=3;fillColor=none;align=center;verticalAlign=top;spacingLeft=4;spacingRight=4;overflow=hidden;rotatable=0;points=[[0,0.5],[1,0.5]];portConstraint=eastwest;whiteSpace=wrap;html=1;" parent="EedAa5cOmFAYyV0mvgN3-1" vertex="1">
          <mxGeometry y="26" width="220" height="26" as="geometry" />
        </mxCell>
        <mxCell id="EedAa5cOmFAYyV0mvgN3-3" value="Place" style="text;strokeColor=#C6D9F1;strokeWidth=3;fillColor=none;align=center;verticalAlign=top;spacingLeft=4;spacingRight=4;overflow=hidden;rotatable=0;points=[[0,0.5],[1,0.5]];portConstraint=eastwest;whiteSpace=wrap;html=1;" parent="EedAa5cOmFAYyV0mvgN3-1" vertex="1">
          <mxGeometry y="52" width="220" height="26" as="geometry" />
        </mxCell>
        <mxCell id="EedAa5cOmFAYyV0mvgN3-4" value="Record Set" style="text;strokeColor=#C6D9F1;strokeWidth=3;fillColor=none;align=center;verticalAlign=top;spacingLeft=4;spacingRight=4;overflow=hidden;rotatable=0;points=[[0,0.5],[1,0.5]];portConstraint=eastwest;whiteSpace=wrap;html=1;" parent="EedAa5cOmFAYyV0mvgN3-1" vertex="1">
          <mxGeometry y="78" width="220" height="26" as="geometry" />
        </mxCell>
        <mxCell id="EedAa5cOmFAYyV0mvgN3-5" value="" style="endArrow=classic;html=1;rounded=0;entryX=0;entryY=0.5;entryDx=0;entryDy=0;" parent="1" target="EedAa5cOmFAYyV0mvgN3-7" edge="1">
          <mxGeometry relative="1" as="geometry">
            <mxPoint x="887.5" y="460.5" as="sourcePoint" />
            <mxPoint x="1067.5" y="460.5" as="targetPoint" />
          </mxGeometry>
        </mxCell>
        <mxCell id="EedAa5cOmFAYyV0mvgN3-6" value="is or was contained by" style="edgeLabel;resizable=0;html=1;;align=center;verticalAlign=middle;" parent="EedAa5cOmFAYyV0mvgN3-5" connectable="0" vertex="1">
          <mxGeometry relative="1" as="geometry" />
        </mxCell>
        <mxCell id="EedAa5cOmFAYyV0mvgN3-7" value="Castle of Simancas" style="swimlane;fontStyle=0;childLayout=stackLayout;horizontal=1;startSize=26;strokeColor=#FAA0A0;strokeWidth=2;fillColor=none;horizontalStack=0;resizeParent=1;resizeParentMax=0;resizeLast=0;collapsible=1;marginBottom=0;whiteSpace=wrap;html=1;" parent="1" vertex="1">
          <mxGeometry x="1067.5" y="436" width="140" height="52" as="geometry" />
        </mxCell>
        <mxCell id="EedAa5cOmFAYyV0mvgN3-8" value="rico:Place" style="text;strokeColor=#FAA0A0;strokeWidth=2;fillColor=#FAA0A0;align=center;verticalAlign=top;spacingLeft=4;spacingRight=4;overflow=hidden;rotatable=0;points=[[0,0.5],[1,0.5]];portConstraint=eastwest;whiteSpace=wrap;html=1;" parent="EedAa5cOmFAYyV0mvgN3-7" vertex="1">
          <mxGeometry y="26" width="140" height="26" as="geometry" />
        </mxCell>
        <mxCell id="EedAa5cOmFAYyV0mvgN3-9" value="" style="endArrow=classic;html=1;rounded=0;entryX=0.002;entryY=0.049;entryDx=0;entryDy=0;entryPerimeter=0;" parent="1" target="EedAa5cOmFAYyV0mvgN3-12" edge="1">
          <mxGeometry relative="1" as="geometry">
            <mxPoint x="1207.5" y="462" as="sourcePoint" />
            <mxPoint x="1387.5" y="462" as="targetPoint" />
          </mxGeometry>
        </mxCell>
        <mxCell id="EedAa5cOmFAYyV0mvgN3-10" value="has or had location" style="edgeLabel;resizable=0;html=1;;align=center;verticalAlign=middle;" parent="EedAa5cOmFAYyV0mvgN3-9" connectable="0" vertex="1">
          <mxGeometry relative="1" as="geometry" />
        </mxCell>
        <mxCell id="EedAa5cOmFAYyV0mvgN3-11" value="Simancas" style="swimlane;fontStyle=0;childLayout=stackLayout;horizontal=1;startSize=26;strokeColor=#FAA0A0;strokeWidth=2;fillColor=none;horizontalStack=0;resizeParent=1;resizeParentMax=0;resizeLast=0;collapsible=1;marginBottom=0;whiteSpace=wrap;html=1;" parent="1" vertex="1">
          <mxGeometry x="1347.5" y="435" width="90" height="52" as="geometry" />
        </mxCell>
        <mxCell id="EedAa5cOmFAYyV0mvgN3-12" value="rico:Place" style="text;strokeColor=#FAA0A0;strokeWidth=2;fillColor=#FAA0A0;align=center;verticalAlign=top;spacingLeft=4;spacingRight=4;overflow=hidden;rotatable=0;points=[[0,0.5],[1,0.5]];portConstraint=eastwest;whiteSpace=wrap;html=1;" parent="EedAa5cOmFAYyV0mvgN3-11" vertex="1">
          <mxGeometry y="26" width="90" height="26" as="geometry" />
        </mxCell>
        <mxCell id="EedAa5cOmFAYyV0mvgN3-16" value="" style="endArrow=classic;html=1;rounded=0;exitX=1;exitY=0.5;exitDx=0;exitDy=0;entryX=0.012;entryY=0.013;entryDx=0;entryDy=0;entryPerimeter=0;" parent="1" source="EedAa5cOmFAYyV0mvgN3-11" target="EedAa5cOmFAYyV0mvgN3-19" edge="1">
          <mxGeometry relative="1" as="geometry">
            <mxPoint x="1477.5" y="462" as="sourcePoint" />
            <mxPoint x="1657.5" y="462" as="targetPoint" />
          </mxGeometry>
        </mxCell>
        <mxCell id="EedAa5cOmFAYyV0mvgN3-17" value="has or had location" style="edgeLabel;resizable=0;html=1;;align=center;verticalAlign=middle;" parent="EedAa5cOmFAYyV0mvgN3-16" connectable="0" vertex="1">
          <mxGeometry relative="1" as="geometry" />
        </mxCell>
        <mxCell id="EedAa5cOmFAYyV0mvgN3-18" value="Valladolid" style="swimlane;fontStyle=0;childLayout=stackLayout;horizontal=1;startSize=26;strokeColor=#FAA0A0;strokeWidth=2;fillColor=none;horizontalStack=0;resizeParent=1;resizeParentMax=0;resizeLast=0;collapsible=1;marginBottom=0;whiteSpace=wrap;html=1;" parent="1" vertex="1">
          <mxGeometry x="1577.5" y="436" width="90" height="52" as="geometry" />
        </mxCell>
        <mxCell id="EedAa5cOmFAYyV0mvgN3-19" value="rico:Place" style="text;strokeColor=#FAA0A0;strokeWidth=2;fillColor=#FAA0A0;align=center;verticalAlign=top;spacingLeft=4;spacingRight=4;overflow=hidden;rotatable=0;points=[[0,0.5],[1,0.5]];portConstraint=eastwest;whiteSpace=wrap;html=1;" parent="EedAa5cOmFAYyV0mvgN3-18" vertex="1">
          <mxGeometry y="26" width="90" height="26" as="geometry" />
        </mxCell>
        <mxCell id="SC_8lG-UtxNycMUHuPiH-1" value="Collection of the Council of Castile" style="swimlane;fontStyle=0;childLayout=stackLayout;horizontal=1;startSize=26;strokeColor=#DAEEF3;fillColor=none;strokeWidth=3;horizontalStack=0;resizeParent=1;resizeParentMax=0;resizeLast=0;collapsible=1;marginBottom=0;whiteSpace=wrap;html=1;" parent="1" vertex="1">
          <mxGeometry x="667.5" y="576" width="220" height="52" as="geometry" />
        </mxCell>
        <mxCell id="SC_8lG-UtxNycMUHuPiH-2" value="rico:RecordSet" style="text;strokeColor=#DAEEF3;strokeWidth=3;fillColor=none;align=center;verticalAlign=top;spacingLeft=4;spacingRight=4;overflow=hidden;rotatable=0;points=[[0,0.5],[1,0.5]];portConstraint=eastwest;whiteSpace=wrap;html=1;" parent="SC_8lG-UtxNycMUHuPiH-1" vertex="1">
          <mxGeometry y="26" width="220" height="26" as="geometry" />
        </mxCell>
        <mxCell id="SC_8lG-UtxNycMUHuPiH-3" value="" style="endArrow=classic;html=1;rounded=0;entryX=0.516;entryY=0.995;entryDx=0;entryDy=0;entryPerimeter=0;exitX=0.516;exitY=0;exitDx=0;exitDy=0;exitPerimeter=0;" parent="1" source="SC_8lG-UtxNycMUHuPiH-1" target="EedAa5cOmFAYyV0mvgN3-4" edge="1">
          <mxGeometry relative="1" as="geometry">
            <mxPoint x="787.5" y="566" as="sourcePoint" />
            <mxPoint x="917.5" y="576" as="targetPoint" />
          </mxGeometry>
        </mxCell>
        <mxCell id="SC_8lG-UtxNycMUHuPiH-4" value="has or had holder" style="edgeLabel;resizable=0;html=1;;align=center;verticalAlign=middle;" parent="SC_8lG-UtxNycMUHuPiH-3" connectable="0" vertex="1">
          <mxGeometry relative="1" as="geometry" />
        </mxCell>
        <mxCell id="SC_8lG-UtxNycMUHuPiH-5" value="" style="endArrow=classic;html=1;rounded=0;entryX=0.5;entryY=1.049;entryDx=0;entryDy=0;entryPerimeter=0;" parent="1" target="SC_8lG-UtxNycMUHuPiH-8" edge="1">
          <mxGeometry relative="1" as="geometry">
            <mxPoint x="777.21" y="396.0000000000002" as="sourcePoint" />
            <mxPoint x="777.21" y="306" as="targetPoint" />
          </mxGeometry>
        </mxCell>
        <mxCell id="SC_8lG-UtxNycMUHuPiH-6" value="has beginning date" style="edgeLabel;resizable=0;html=1;;align=center;verticalAlign=middle;" parent="SC_8lG-UtxNycMUHuPiH-5" connectable="0" vertex="1">
          <mxGeometry relative="1" as="geometry" />
        </mxCell>
        <mxCell id="SC_8lG-UtxNycMUHuPiH-7" value="Founding of the General Archive of Simancas" style="swimlane;fontStyle=0;childLayout=stackLayout;horizontal=1;startSize=26;strokeColor=#DDD9C3;strokeWidth=2;fillColor=none;horizontalStack=0;resizeParent=1;resizeParentMax=0;resizeLast=0;collapsible=1;marginBottom=0;whiteSpace=wrap;html=1;" parent="1" vertex="1">
          <mxGeometry x="640" y="266" width="275" height="52" as="geometry" />
        </mxCell>
        <mxCell id="SC_8lG-UtxNycMUHuPiH-8" value="rico:Date" style="text;strokeColor=#DDD9C3;strokeWidth=2;fillColor=#DDD9C3;align=center;verticalAlign=top;spacingLeft=4;spacingRight=4;overflow=hidden;rotatable=0;points=[[0,0.5],[1,0.5]];portConstraint=eastwest;whiteSpace=wrap;html=1;" parent="SC_8lG-UtxNycMUHuPiH-7" vertex="1">
          <mxGeometry y="26" width="275" height="26" as="geometry" />
        </mxCell>
        <mxCell id="SC_8lG-UtxNycMUHuPiH-9" value="" style="endArrow=classic;html=1;rounded=0;exitX=0.5;exitY=0;exitDx=0;exitDy=0;entryX=0.5;entryY=1;entryDx=0;entryDy=0;" parent="1" source="SC_8lG-UtxNycMUHuPiH-7" target="SC_8lG-UtxNycMUHuPiH-11" edge="1">
          <mxGeometry relative="1" as="geometry">
            <mxPoint x="777.5" y="226" as="sourcePoint" />
            <mxPoint x="777.5" y="196" as="targetPoint" />
          </mxGeometry>
        </mxCell>
        <mxCell id="SC_8lG-UtxNycMUHuPiH-10" value="normalized date" style="edgeLabel;resizable=0;html=1;;align=center;verticalAlign=middle;" parent="SC_8lG-UtxNycMUHuPiH-9" connectable="0" vertex="1">
          <mxGeometry relative="1" as="geometry" />
        </mxCell>
        <mxCell id="SC_8lG-UtxNycMUHuPiH-11" value="1540-09-16" style="html=1;whiteSpace=wrap;rounded=1;arcSize=50;" parent="1" vertex="1">
          <mxGeometry x="722.5" y="156" width="110" height="50" as="geometry" />
        </mxCell>
        <mxCell id="SC_8lG-UtxNycMUHuPiH-26" value="" style="endArrow=classic;html=1;rounded=0;exitX=1.002;exitY=0.071;exitDx=0;exitDy=0;exitPerimeter=0;entryX=0.003;entryY=0.114;entryDx=0;entryDy=0;entryPerimeter=0;" parent="1" source="SC_8lG-UtxNycMUHuPiH-2" target="SC_8lG-UtxNycMUHuPiH-29" edge="1">
          <mxGeometry relative="1" as="geometry">
            <mxPoint x="915" y="602" as="sourcePoint" />
            <mxPoint x="1097.5" y="604" as="targetPoint" />
          </mxGeometry>
        </mxCell>
        <mxCell id="SC_8lG-UtxNycMUHuPiH-27" value="rico:hasRecordSetType" style="edgeLabel;resizable=0;html=1;;align=center;verticalAlign=middle;" parent="SC_8lG-UtxNycMUHuPiH-26" connectable="0" vertex="1">
          <mxGeometry relative="1" as="geometry" />
        </mxCell>
        <mxCell id="SC_8lG-UtxNycMUHuPiH-28" value="Fonds" style="swimlane;fontStyle=0;childLayout=stackLayout;horizontal=1;startSize=26;fillColor=none;horizontalStack=0;resizeParent=1;resizeParentMax=0;resizeLast=0;collapsible=1;marginBottom=0;whiteSpace=wrap;html=1;" parent="1" vertex="1">
          <mxGeometry x="1067.5" y="576" width="135" height="52" as="geometry">
            <mxRectangle x="981" y="570" width="50" height="40" as="alternateBounds" />
          </mxGeometry>
        </mxCell>
        <mxCell id="SC_8lG-UtxNycMUHuPiH-29" value="rico:RecordSetType&lt;div&gt;&lt;br&gt;&lt;/div&gt;" style="text;fillColor=none;align=center;verticalAlign=top;spacingLeft=4;spacingRight=4;overflow=hidden;rotatable=0;points=[[0,0.5],[1,0.5]];portConstraint=eastwest;whiteSpace=wrap;html=1;" parent="SC_8lG-UtxNycMUHuPiH-28" vertex="1">
          <mxGeometry y="26" width="135" height="26" as="geometry" />
        </mxCell>
        <mxCell id="AlLUUdLejRFfjKabHKFL-1" value="Stipulation of King Carlos 1 that documents be sent to the Castle of Simancas" style="swimlane;fontStyle=0;childLayout=stackLayout;horizontal=1;startSize=50;strokeColor=#EAF1DD;strokeWidth=3;fillColor=none;horizontalStack=0;resizeParent=1;resizeParentMax=0;resizeLast=0;collapsible=1;marginBottom=0;whiteSpace=wrap;html=1;" parent="1" vertex="1">
          <mxGeometry x="300" y="336" width="190" height="76" as="geometry" />
        </mxCell>
        <mxCell id="AlLUUdLejRFfjKabHKFL-2" value="rico:Mandate&lt;div&gt;&lt;br&gt;&lt;/div&gt;" style="text;strokeColor=#EAF1DD;strokeWidth=3;strokeColor=none;fillColor=none;align=center;verticalAlign=top;spacingLeft=4;spacingRight=4;overflow=hidden;rotatable=0;points=[[0,0.5],[1,0.5]];portConstraint=eastwest;whiteSpace=wrap;html=1;" parent="AlLUUdLejRFfjKabHKFL-1" vertex="1">
          <mxGeometry y="50" width="190" height="26" as="geometry" />
        </mxCell>
        <mxCell id="AlLUUdLejRFfjKabHKFL-3" value="" style="endArrow=classic;html=1;rounded=0;entryX=1;entryY=0.5;entryDx=0;entryDy=0;exitX=0;exitY=0.5;exitDx=0;exitDy=0;" parent="1" source="EedAa5cOmFAYyV0mvgN3-2" target="AlLUUdLejRFfjKabHKFL-1" edge="1">
          <mxGeometry relative="1" as="geometry">
            <mxPoint x="500" y="466" as="sourcePoint" />
            <mxPoint x="640" y="466" as="targetPoint" />
          </mxGeometry>
        </mxCell>
        <mxCell id="AlLUUdLejRFfjKabHKFL-4" value="authorized by" style="edgeLabel;resizable=0;html=1;;align=center;verticalAlign=middle;" parent="AlLUUdLejRFfjKabHKFL-3" connectable="0" vertex="1">
          <mxGeometry relative="1" as="geometry" />
        </mxCell>
        <mxCell id="AlLUUdLejRFfjKabHKFL-5" value="" style="endArrow=classic;html=1;rounded=0;exitX=0.559;exitY=-0.004;exitDx=0;exitDy=0;exitPerimeter=0;entryX=0.515;entryY=1.075;entryDx=0;entryDy=0;entryPerimeter=0;" parent="1" source="AlLUUdLejRFfjKabHKFL-1" target="AlLUUdLejRFfjKabHKFL-8" edge="1">
          <mxGeometry relative="1" as="geometry">
            <mxPoint x="330" y="516" as="sourcePoint" />
            <mxPoint x="389" y="496" as="targetPoint" />
          </mxGeometry>
        </mxCell>
        <mxCell id="AlLUUdLejRFfjKabHKFL-6" value="is or was expressed by" style="edgeLabel;resizable=0;html=1;;align=center;verticalAlign=middle;" parent="AlLUUdLejRFfjKabHKFL-5" connectable="0" vertex="1">
          <mxGeometry relative="1" as="geometry" />
        </mxCell>
        <mxCell id="AlLUUdLejRFfjKabHKFL-7" value="Royal decree of the 16th September, 1540" style="swimlane;fontStyle=0;childLayout=stackLayout;horizontal=1;startSize=36;strokeColor=#DAEEF3;strokeWidth=3;fillColor=none;horizontalStack=0;resizeParent=1;resizeParentMax=0;resizeLast=0;collapsible=1;marginBottom=0;whiteSpace=wrap;html=1;" parent="1" vertex="1">
          <mxGeometry x="410" y="150" width="160" height="62" as="geometry" />
        </mxCell>
        <mxCell id="AlLUUdLejRFfjKabHKFL-8" value="rico:Record" style="text;strokeColor=#DAEEF3;strokeWidth=3;fillColor=none;align=center;verticalAlign=top;spacingLeft=4;spacingRight=4;overflow=hidden;rotatable=0;points=[[0,0.5],[1,0.5]];portConstraint=eastwest;whiteSpace=wrap;html=1;" parent="AlLUUdLejRFfjKabHKFL-7" vertex="1">
          <mxGeometry y="36" width="160" height="26" as="geometry" />
        </mxCell>
        <mxCell id="AlLUUdLejRFfjKabHKFL-9" value="" style="endArrow=classic;html=1;rounded=0;entryX=0.011;entryY=0.412;entryDx=0;entryDy=0;exitX=1.006;exitY=0.452;exitDx=0;exitDy=0;exitPerimeter=0;entryPerimeter=0;" parent="1" source="AlLUUdLejRFfjKabHKFL-7" target="SC_8lG-UtxNycMUHuPiH-11" edge="1">
          <mxGeometry relative="1" as="geometry">
            <mxPoint x="567" y="181" as="sourcePoint" />
            <mxPoint x="650" y="146" as="targetPoint" />
          </mxGeometry>
        </mxCell>
        <mxCell id="AlLUUdLejRFfjKabHKFL-10" value="normalized date" style="edgeLabel;resizable=0;html=1;;align=center;verticalAlign=middle;" parent="AlLUUdLejRFfjKabHKFL-9" connectable="0" vertex="1">
          <mxGeometry relative="1" as="geometry" />
        </mxCell>
        <mxCell id="AlLUUdLejRFfjKabHKFL-11" value="" style="endArrow=classic;html=1;rounded=0;exitX=0.496;exitY=1.086;exitDx=0;exitDy=0;exitPerimeter=0;" parent="1" source="AlLUUdLejRFfjKabHKFL-2" target="AlLUUdLejRFfjKabHKFL-13" edge="1">
          <mxGeometry relative="1" as="geometry">
            <mxPoint x="390" y="487" as="sourcePoint" />
            <mxPoint x="394" y="486" as="targetPoint" />
          </mxGeometry>
        </mxCell>
        <mxCell id="AlLUUdLejRFfjKabHKFL-12" value="issued by" style="edgeLabel;resizable=0;html=1;;align=center;verticalAlign=middle;" parent="AlLUUdLejRFfjKabHKFL-11" connectable="0" vertex="1">
          <mxGeometry relative="1" as="geometry" />
        </mxCell>
        <mxCell id="AlLUUdLejRFfjKabHKFL-13" value="Carlos 1" style="swimlane;fontStyle=0;childLayout=stackLayout;horizontal=1;startSize=26;strokeColor=#E5DFEC;strokeWidth=3;fillColor=none;horizontalStack=0;resizeParent=1;resizeParentMax=0;resizeLast=0;collapsible=1;marginBottom=0;whiteSpace=wrap;html=1;" parent="1" vertex="1">
          <mxGeometry x="350" y="476" width="90" height="52" as="geometry" />
        </mxCell>
        <mxCell id="AlLUUdLejRFfjKabHKFL-14" value="rico:Person" style="text;strokeColor=#E5DFEC;strokeWidth=3;fillColor=none;align=center;verticalAlign=top;spacingLeft=4;spacingRight=4;overflow=hidden;rotatable=0;points=[[0,0.5],[1,0.5]];portConstraint=eastwest;whiteSpace=wrap;html=1;" parent="AlLUUdLejRFfjKabHKFL-13" vertex="1">
          <mxGeometry y="26" width="90" height="26" as="geometry" />
        </mxCell>
        <mxCell id="AlLUUdLejRFfjKabHKFL-15" value="King of Spain" style="swimlane;fontStyle=0;childLayout=stackLayout;horizontal=1;startSize=26;strokeColor=#E5DFEC;strokeWidth=3;fillColor=none;horizontalStack=0;resizeParent=1;resizeParentMax=0;resizeLast=0;collapsible=1;marginBottom=0;whiteSpace=wrap;html=1;" parent="1" vertex="1">
          <mxGeometry x="90" y="474" width="90" height="52" as="geometry" />
        </mxCell>
        <mxCell id="AlLUUdLejRFfjKabHKFL-16" value="rico:Position" style="text;strokeColor=#E5DFEC;strokeWidth=3;fillColor=none;align=center;verticalAlign=top;spacingLeft=4;spacingRight=4;overflow=hidden;rotatable=0;points=[[0,0.5],[1,0.5]];portConstraint=eastwest;whiteSpace=wrap;html=1;" parent="AlLUUdLejRFfjKabHKFL-15" vertex="1">
          <mxGeometry y="26" width="90" height="26" as="geometry" />
        </mxCell>
        <mxCell id="8xnaje2ugP3NXyGfDYd4-1" value="" style="endArrow=classic;html=1;rounded=0;entryX=0.996;entryY=-0.115;entryDx=0;entryDy=0;entryPerimeter=0;exitX=0.006;exitY=0.388;exitDx=0;exitDy=0;exitPerimeter=0;" edge="1" parent="1" source="AlLUUdLejRFfjKabHKFL-13" target="AlLUUdLejRFfjKabHKFL-16">
          <mxGeometry relative="1" as="geometry">
            <mxPoint x="340" y="501.58" as="sourcePoint" />
            <mxPoint x="170" y="501.58" as="targetPoint" />
          </mxGeometry>
        </mxCell>
        <mxCell id="8xnaje2ugP3NXyGfDYd4-2" value="rico:occupiesOrOccupied" style="edgeLabel;resizable=0;html=1;;align=center;verticalAlign=middle;" connectable="0" vertex="1" parent="8xnaje2ugP3NXyGfDYd4-1">
          <mxGeometry relative="1" as="geometry" />
        </mxCell>
        <mxCell id="8xnaje2ugP3NXyGfDYd4-3" value="Juan Vázquez de Molina" style="swimlane;fontStyle=0;childLayout=stackLayout;horizontal=1;startSize=26;strokeColor=#E5DFEC;strokeWidth=3;fillColor=none;horizontalStack=0;resizeParent=1;resizeParentMax=0;resizeLast=0;collapsible=1;marginBottom=0;whiteSpace=wrap;html=1;" vertex="1" parent="1">
          <mxGeometry x="65" y="150" width="140" height="52" as="geometry" />
        </mxCell>
        <mxCell id="8xnaje2ugP3NXyGfDYd4-4" value="rico:Person" style="text;strokeColor=#E5DFEC;strokeWidth=3;fillColor=none;align=center;verticalAlign=top;spacingLeft=4;spacingRight=4;overflow=hidden;rotatable=0;points=[[0,0.5],[1,0.5]];portConstraint=eastwest;whiteSpace=wrap;html=1;" vertex="1" parent="8xnaje2ugP3NXyGfDYd4-3">
          <mxGeometry y="26" width="140" height="26" as="geometry" />
        </mxCell>
        <mxCell id="8xnaje2ugP3NXyGfDYd4-5" value="" style="endArrow=classic;html=1;rounded=0;entryX=1.015;entryY=0.199;entryDx=0;entryDy=0;entryPerimeter=0;exitX=0;exitY=0.5;exitDx=0;exitDy=0;" edge="1" parent="1" source="AlLUUdLejRFfjKabHKFL-7" target="8xnaje2ugP3NXyGfDYd4-4">
          <mxGeometry relative="1" as="geometry">
            <mxPoint x="390" y="189.99999999999997" as="sourcePoint" />
            <mxPoint x="260" y="189.99999999999997" as="targetPoint" />
          </mxGeometry>
        </mxCell>
        <mxCell id="8xnaje2ugP3NXyGfDYd4-6" value="has author" style="edgeLabel;resizable=0;html=1;;align=center;verticalAlign=middle;" connectable="0" vertex="1" parent="8xnaje2ugP3NXyGfDYd4-5">
          <mxGeometry relative="1" as="geometry" />
        </mxCell>
        <mxCell id="8xnaje2ugP3NXyGfDYd4-7" value="Secretary to the King of Spain" style="swimlane;fontStyle=0;childLayout=stackLayout;horizontal=1;startSize=26;strokeColor=#E5DFEC;strokeWidth=3;fillColor=none;horizontalStack=0;resizeParent=1;resizeParentMax=0;resizeLast=0;collapsible=1;marginBottom=0;whiteSpace=wrap;html=1;" vertex="1" parent="1">
          <mxGeometry x="50" y="292" width="170" height="52" as="geometry" />
        </mxCell>
        <mxCell id="8xnaje2ugP3NXyGfDYd4-8" value="rico:Position" style="text;strokeColor=#E5DFEC;strokeWidth=3;fillColor=none;align=center;verticalAlign=top;spacingLeft=4;spacingRight=4;overflow=hidden;rotatable=0;points=[[0,0.5],[1,0.5]];portConstraint=eastwest;whiteSpace=wrap;html=1;" vertex="1" parent="8xnaje2ugP3NXyGfDYd4-7">
          <mxGeometry y="26" width="170" height="26" as="geometry" />
        </mxCell>
        <mxCell id="8xnaje2ugP3NXyGfDYd4-9" value="" style="endArrow=classic;html=1;rounded=0;exitX=0.466;exitY=1.038;exitDx=0;exitDy=0;exitPerimeter=0;entryX=0.469;entryY=-0.016;entryDx=0;entryDy=0;entryPerimeter=0;" edge="1" parent="1" source="8xnaje2ugP3NXyGfDYd4-4" target="8xnaje2ugP3NXyGfDYd4-7">
          <mxGeometry relative="1" as="geometry">
            <mxPoint x="246" y="398.5" as="sourcePoint" />
            <mxPoint x="131" y="270" as="targetPoint" />
          </mxGeometry>
        </mxCell>
        <mxCell id="8xnaje2ugP3NXyGfDYd4-10" value="occupies or occupied" style="edgeLabel;resizable=0;html=1;;align=center;verticalAlign=middle;" connectable="0" vertex="1" parent="8xnaje2ugP3NXyGfDYd4-9">
          <mxGeometry relative="1" as="geometry" />
        </mxCell>
        <mxCell id="8xnaje2ugP3NXyGfDYd4-11" value="" style="endArrow=classic;html=1;rounded=0;exitX=0.489;exitY=0.984;exitDx=0;exitDy=0;exitPerimeter=0;entryX=0.46;entryY=-0.025;entryDx=0;entryDy=0;entryPerimeter=0;" edge="1" parent="1" source="8xnaje2ugP3NXyGfDYd4-8" target="AlLUUdLejRFfjKabHKFL-15">
          <mxGeometry relative="1" as="geometry">
            <mxPoint x="120" y="400" as="sourcePoint" />
            <mxPoint x="135" y="460" as="targetPoint" />
          </mxGeometry>
        </mxCell>
        <mxCell id="8xnaje2ugP3NXyGfDYd4-12" value="rico:isOrWasSubordinateTo" style="edgeLabel;resizable=0;html=1;;align=center;verticalAlign=middle;" connectable="0" vertex="1" parent="8xnaje2ugP3NXyGfDYd4-11">
          <mxGeometry relative="1" as="geometry" />
        </mxCell>
        <mxCell id="8xnaje2ugP3NXyGfDYd4-21" value="" style="endArrow=classic;html=1;rounded=0;exitX=1;exitY=0;exitDx=0;exitDy=0;curved=1;entryX=0.457;entryY=-0.025;entryDx=0;entryDy=0;entryPerimeter=0;" edge="1" parent="1" source="AlLUUdLejRFfjKabHKFL-7" target="8xnaje2ugP3NXyGfDYd4-23">
          <mxGeometry relative="1" as="geometry">
            <mxPoint x="750" y="110" as="sourcePoint" />
            <mxPoint x="1100" y="220" as="targetPoint" />
            <Array as="points">
              <mxPoint x="900" y="50" />
            </Array>
          </mxGeometry>
        </mxCell>
        <mxCell id="8xnaje2ugP3NXyGfDYd4-22" value="has or had subject" style="edgeLabel;resizable=0;html=1;;align=center;verticalAlign=middle;" connectable="0" vertex="1" parent="8xnaje2ugP3NXyGfDYd4-21">
          <mxGeometry relative="1" as="geometry">
            <mxPoint x="-87" y="53" as="offset" />
          </mxGeometry>
        </mxCell>
        <mxCell id="8xnaje2ugP3NXyGfDYd4-23" value="Juan Mosquera de Molina" style="swimlane;fontStyle=0;childLayout=stackLayout;horizontal=1;startSize=26;strokeColor=#E5DFEC;strokeWidth=3;fillColor=none;horizontalStack=0;resizeParent=1;resizeParentMax=0;resizeLast=0;collapsible=1;marginBottom=0;whiteSpace=wrap;html=1;" vertex="1" parent="1">
          <mxGeometry x="1047.5" y="240" width="180" height="52" as="geometry" />
        </mxCell>
        <mxCell id="8xnaje2ugP3NXyGfDYd4-24" value="rico:Person" style="text;strokeColor=#E5DFEC;strokeWidth=3;fillColor=none;align=center;verticalAlign=top;spacingLeft=4;spacingRight=4;overflow=hidden;rotatable=0;points=[[0,0.5],[1,0.5]];portConstraint=eastwest;whiteSpace=wrap;html=1;" vertex="1" parent="8xnaje2ugP3NXyGfDYd4-23">
          <mxGeometry y="26" width="180" height="26" as="geometry" />
        </mxCell>
        <mxCell id="8xnaje2ugP3NXyGfDYd4-25" value="" style="endArrow=classic;html=1;rounded=0;exitX=0.5;exitY=0.923;exitDx=0;exitDy=0;exitPerimeter=0;entryX=0.5;entryY=0;entryDx=0;entryDy=0;" edge="1" parent="1" source="8xnaje2ugP3NXyGfDYd4-24" target="EedAa5cOmFAYyV0mvgN3-7">
          <mxGeometry relative="1" as="geometry">
            <mxPoint x="1090" y="373.71" as="sourcePoint" />
            <mxPoint x="1140" y="430" as="targetPoint" />
          </mxGeometry>
        </mxCell>
        <mxCell id="8xnaje2ugP3NXyGfDYd4-26" value="has or had authority over" style="edgeLabel;resizable=0;html=1;;align=center;verticalAlign=middle;" connectable="0" vertex="1" parent="8xnaje2ugP3NXyGfDYd4-25">
          <mxGeometry relative="1" as="geometry" />
        </mxCell>
      </root>
    </mxGraphModel>
  </diagram>
</mxfile>
